<?xml version="1.0" standalone="no"?><!DOCTYPE svg PUBLIC "-//W3C//DTD SVG 1.1//EN" "http://www.w3.org/Graphics/SVG/1.1/DTD/svg11.dtd"><svg t="1529463674102" class="icon" style="" viewBox="0 0 1024 1024" version="1.1" xmlns="http://www.w3.org/2000/svg" p-id="5309" xmlns:xlink="http://www.w3.org/1999/xlink" width="200" height="200"><defs><style type="text/css"></style></defs><path d="M838.997496 195.585537c-5.66707 14.112416-19.10615 21.10876-36.225039 18.919908-8.085142-1.033539-16.019859-2.707668-23.549346-5.861498-3.189645-1.336438-5.456269-0.874927-8.248871 1.295506-11.236925 8.733918-23.553439 15.266705-37.917588 17.320481-7.360641 1.052982-14.384615 0.076748-21.189601-2.731204-1.567705-0.64673-2.77009-1.605567-3.686972 0.900509-4.78191 13.063527-14.885012 21.049409-26.813692 26.885324-4.246721 2.078335-5.624091 4.39817-5.196349 9.05012 0.615007 6.694469-0.205685 13.3214-4.010337 19.259646-1.309832 2.044566-2.842745 3.697205-4.957919 4.840238-5.875824 3.176342-7.661494 2.330068-8.563026-4.128017-2.965541-21.237697-3.88754-42.456974 1.255597-63.514569 2.301416-9.42465 6.196119-18.09717 13.767562-24.606421 1.785669-1.534959 2.307555-3.340071 2.691295-5.590322 2.465145-14.43885 7.325849-27.910677 17.132192-39.128159 14.824637-16.957207 34.193777-22.762423 55.905264-21.719674 5.977132 0.286526 9.461489-0.827855 13.009292-6.163373 16.368806-24.62177 43.185568-34.546817 71.839165-27.190269 4.246721 1.089821 7.795547 0.854461 11.815093-1.12666 13.360286-6.584975 27.406187-11.079336 42.417065-11.881608 29.039383-1.552356 48.624441 10.750855 60.096726 37.461193 4.714372 10.977006 7.277754 22.654976 10.311857 34.066887 3.701299 13.916964-2.721994 25.558096-13.597693 34.214243-4.52813 3.604084-5.693676 7.126304-5.309936 12.685927 0.954745 13.827937-2.501984 26.210965-14.6957 34.602076-6.067182 4.176113-12.966313 6.056949-20.218484 6.999414-11.067057 1.437745-22.158672 1.044796-32.81743-1.766226-17.983583-4.743024-34.148751-18.680455-32.266891-43.207058C839.534731 194.553021 839.287091 195.249893 838.997496 195.585537z" p-id="5310"></path><path d="M838.997496 195.585537c-0.216941-1.108241 0.134053-1.988284 1.131777-2.524496 0.155543-0.083911 0.679475 0.1361 0.735757 0.311085 0.294712 0.918929-0.092098 1.611707-0.892323 2.098801l-0.50142-0.064468L838.997496 195.585537z" p-id="5311"></path><path d="M807.650557 613.459786c0.004093-3.969405-1.062192-5.988388-4.718465-7.744381-29.739325-14.286378-59.307757-28.931936-89.086991-43.134403-4.185322-1.99647-5.154393-4.329609-5.148253-8.572236 0.110517-81.538061 0.029676-163.075099 0.207731-244.61316 0.011256-5.082762-1.424442-6.16235-6.246261-6.109138-23.500227 0.25685-47.007617-0.037862-70.507844 0.267083-4.957919 0.064468-5.916756-1.407046-5.844102-6.0416 0.278339-17.894555-0.002047-35.797297 0.202615-53.6939 0.044002-3.870144-1.139963-4.824889-4.867868-4.759397-12.652158 0.222057-25.317619 0.339738-37.96159-0.041956-5.083785-0.153496-6.625908 0.973164-6.612605 6.386454 0.197498 81.176834 0.137123 162.354692 0.138146 243.532549 0 1.981121 0 3.961218 0 6.835685-2.465145-1.1328-4.088108-1.840928-5.678326-2.615571C443.141726 430.641017 314.758754 368.126218 186.400341 305.560254c-3.006474-1.465374-5.962805-2.214435-9.320273-2.206248-34.893718 0.084934-69.787436 0.164752-104.680131-0.037862-4.734838-0.027629-5.953595 1.094938-5.950526 5.921873 0.1361 210.084763 0.132006 420.170548 0.01535 630.255311-0.002047 4.488221 1.119497 5.640464 5.621021 5.638417 243.351424-0.113587 486.702847-0.115634 730.054271 0.013303 4.673439 0.002047 5.51562-1.343601 5.510504-5.709025C807.525714 830.777277 807.52776 722.118532 807.650557 613.459786zM209.549573 880.986819c-18.434861-0.204661-36.874839-0.214894-55.308677 0.007163-4.15974 0.050142-5.434779-0.902556-5.415336-5.287423 0.183172-41.030485 0.10847-82.061994 0.10847-123.093503 0-41.031509 0.085958-82.063017-0.11768-123.093503-0.023536-4.65195 1.315972-5.578042 5.702885-5.51562 18.252713 0.258896 36.512588 0.252757 54.765301 0.004093 4.356214-0.059352 5.760191 0.860601 5.750981 5.517667-0.151449 82.061994-0.149403 164.125011 0 246.187005C215.044728 880.189663 213.645868 881.031844 209.549573 880.986819zM313.792753 876.224352c0.005117 3.877307-1.1328 4.796236-4.866844 4.759397-18.797112-0.185218-37.59934-0.23843-56.394405 0.028653-4.351098 0.061398-4.922103-1.466398-4.909823-5.27105 0.128937-41.212634 0.080841-82.425268 0.080841-123.638925 0-40.851407 0.083911-81.702813-0.115634-122.553197-0.022513-4.628414 1.287319-5.606695 5.698792-5.545296 18.433838 0.258896 36.873816 0.214894 55.3097 0.022513 3.833305-0.039909 5.226025 0.617054 5.218862 4.920056C313.668932 711.372793 313.679166 793.798061 313.792753 876.224352zM407.683143 880.981702c-18.434861-0.183172-36.875862-0.243547-55.308677 0.027629-4.63353 0.068562-6.055926-0.88209-6.02625-5.852288 0.236384-40.84936 0.134053-81.700767 0.134053-122.552174 0.001023-40.850383 0.067538-81.70179-0.095167-122.552174-0.017396-4.461615 0.618077-6.192026 5.743818-6.087649 18.609847 0.378623 37.232996 0.230244 55.850006 0.076748 3.413749-0.027629 4.589528 0.717338 4.584412 4.406356-0.109494 82.60537-0.11154 165.210739 0.005117 247.816109C412.57557 880.186593 411.373185 881.017518 407.683143 880.981702z" p-id="5312"></path></svg>