<?xml version="1.0" standalone="no"?><!DOCTYPE svg PUBLIC "-//W3C//DTD SVG 1.1//EN" "http://www.w3.org/Graphics/SVG/1.1/DTD/svg11.dtd"><svg t="1534400617954" class="icon" style="" viewBox="0 0 1024 1024" version="1.1" xmlns="http://www.w3.org/2000/svg" p-id="3469" xmlns:xlink="http://www.w3.org/1999/xlink" width="128" height="128"><defs><style type="text/css"></style></defs><path d="M788.02465906 108.02323344H234.267185c-32.13341438 0-58.1822325 26.04881906-58.18223344 58.1822325v706.43680312c0 32.13341438 26.04881906 58.1822325 58.18223344 58.1822325h553.75747406c32.13341438 0 58.1822325-26.04881906 58.1822325-58.1822325V166.20546594c0-32.13341438-26.04881906-58.1822325-58.1822325-58.1822325z m6.18494063 768.00912187H228.08338344V162.81537969h566.12621625V876.03235531z" p-id="3470"></path><path d="M249.68962719 199.04586125h521.65712812v141.95944781H249.68962719zM250.97815625 398.73028531v171.03460125h208.66308V398.73028531H250.97815625zM449.24975938 558.64818406H261.37077312V409.84812781H449.24975938v148.80005625zM497.58671563 403.29145156h272.61974812v16.28222157H497.58671563zM497.58671563 484.24758594h272.61974812v16.28222156H497.58671563zM497.58671563 553.48380406h272.61974812v16.2822225H497.58671563zM249.68962719 626.65516906h521.65712812V832.35919156H249.68962719z" p-id="3471"></path></svg>