<?xml version="1.0" standalone="no"?><!DOCTYPE svg PUBLIC "-//W3C//DTD SVG 1.1//EN" "http://www.w3.org/Graphics/SVG/1.1/DTD/svg11.dtd"><svg t="1529472514188" class="icon" style="" viewBox="0 0 1024 1024" version="1.1" xmlns="http://www.w3.org/2000/svg" p-id="2697" xmlns:xlink="http://www.w3.org/1999/xlink" width="200" height="200"><defs><style type="text/css"></style></defs><path d="M809.656237 64.612577 214.343763 64.612577c-60.231803 0-109.058858 48.827055-109.058858 109.058858l0 676.656107c0 60.231803 48.827055 109.058858 109.058858 109.058858l595.313497 0c60.231803 0 109.058858-48.827055 109.058858-109.058858L918.716118 173.671435C918.715095 113.440655 869.88804 64.612577 809.656237 64.612577zM270.499737 313.819358c0-16.603143 13.58439-30.187533 30.187533-30.187533l422.62546 0c16.603143 0 30.187533 13.58439 30.187533 30.187533l0 0c0 16.603143-13.58439 30.187533-30.187533 30.187533l-422.62546 0C284.084127 344.006891 270.499737 330.422502 270.499737 313.819358L270.499737 313.819358zM269.817192 473.455125c0-16.603143 13.58439-30.187533 30.187533-30.187533l422.62546 0c16.603143 0 30.187533 13.58439 30.187533 30.187533l0 0c0 16.603143-13.58439 30.187533-30.187533 30.187533l-422.62546 0C283.401582 503.642658 269.817192 490.058268 269.817192 473.455125L269.817192 473.455125zM270.499737 638.207423 270.499737 638.207423c0-16.603143 13.58439-30.187533 30.187533-30.187533l284.819884 0c16.603143 0 30.187533 13.58439 30.187533 30.187533l0 0c0 16.603143-13.58439 30.187533-30.187533 30.187533L300.68727 668.394956C284.084127 668.394956 270.499737 654.810566 270.499737 638.207423zM789.329283 663.141302l-159.420873 155.086148c-6.063089 5.898337-14.022365 8.715499-21.903869 8.493441-7.841595 0.232291-15.768125-2.544963-21.832238-8.381901l-42.262546-40.678468c-11.962449-11.514241-12.328793-30.721699-0.815575-42.684148l0 0c11.514241-11.962449 30.721699-12.328793 42.684148-0.815575l22.097274 21.269419 139.353838-135.564535c11.901051-11.577686 31.110555-11.31265 42.687218 0.588401l0 0C801.49537 632.355135 801.230334 651.564639 789.329283 663.141302z" p-id="2698"></path></svg>