<?xml version="1.0" standalone="no"?><!DOCTYPE svg PUBLIC "-//W3C//DTD SVG 1.1//EN" "http://www.w3.org/Graphics/SVG/1.1/DTD/svg11.dtd"><svg t="1529463539699" class="icon" style="" viewBox="0 0 1024 1024" version="1.1" xmlns="http://www.w3.org/2000/svg" p-id="3880" xmlns:xlink="http://www.w3.org/1999/xlink" width="200" height="200"><defs><style type="text/css"></style></defs><path d="M836.437333 565.418667c24.064-48.128 37.546667-102.229333 37.546667-159.402667C873.813333 207.189333 711.850667 46.08 511.829333 46.08s-361.813333 161.109333-361.813333 359.765333c0 56.149333 12.970667 109.397333 36.010667 156.842667L47.786667 797.354667s91.477333 18.090667 184.149333 37.205333c61.781333 68.437333 123.392 136.704 123.392 136.704l122.197333-207.189333c11.434667 1.024 22.869333 1.706667 34.474667 1.706666 10.581333 0 21.162667-0.512 31.573333-1.365333L665.6 971.434667s61.610667-68.266667 123.392-136.704c92.842667-18.944 184.149333-37.205333 184.149333-37.205334l-136.704-232.106666zM395.946667 246.954667l43.349333 12.458666c-7.68 24.917333-16.554667 48.810667-25.088 71.68v244.906667h-42.666667v-158.72c-8.533333 14.677333-17.066667 28.842667-26.282666 42.496-2.901333-18.090667-7.338667-38.4-13.482667-61.098667 25.258667-39.594667 46.762667-90.112 64.170667-151.722666z m-47.445334 624.981333s-44.373333-42.154667-86.016-82.773333c-59.221333-16.896-118.954667-33.962667-118.954666-33.962667l77.312-132.096c47.616 64.170667 115.712 112.128 194.901333 133.802667l-67.242667 115.029333z m115.370667-292.693333c-9.216-8.874667-20.821333-18.773333-34.645333-29.866667 24.234667-23.381333 45.909333-48.64 65.536-75.946667l38.4 25.429334c-19.456 25.941333-42.666667 52.736-69.290667 80.384z m-36.181333-110.762667v-42.666667h47.786666v-73.386666h-35.84v-42.666667h35.84v-61.44h46.08v61.44h52.906667v-61.44h46.08v61.44h37.546667v42.666667h-37.546667v73.386666h47.786667v42.666667h-240.64z m169.130666 6.144c23.552 23.381333 47.104 48.128 70.656 74.410667L628.053333 578.56c-18.602667-25.770667-40.618667-52.224-66.218666-79.018667l34.986666-24.917333z m161.621334 314.538667C716.8 829.781333 672.426667 871.936 672.426667 871.936L605.525333 757.76c79.189333-21.162667 147.797333-68.608 195.925334-132.266667l76.117333 129.877334c-0.170667 0-59.904 17.066667-119.125333 33.792zM574.805333 427.008h-53.248v-74.410667h53.248v74.410667z" fill="#fff" p-id="3881"></path></svg>